PathFileType	4	(X/Y/Z)	E:\Qualisys_Data\Carbon_Farble_Plate\Data\Amateur_Runner\S1\T2\S1T2V12_c3d.trc
DataRate	CameraRate	NumFrames	NumMarkers	Units	OrigDataRate	OrigDataStartFrame	OrigNumFrames
200.000000	200.000000	4	39	mm	200.000000	78	312
Frame#	Time	LSHO			RSHO			LICST			RICST			LASIS			LHEEL			RASIS			LTROC			RTROC			SACR			LTH1			LSK4			LTH2			LTH3			RHM5			LSK2			LTH4			RTH1			LTOE			RTH2			RTH3			RTH4			LLEP			RLEP			LSK1			LSK3			RSK1			LHM5			RSK2			LFT1			RSK3			RSK4			LLME			RLME			RTOE			RHEEL			RFT1			RFT2			LFT2			
		X1	Y1	Z1	X2	Y2	Z2	X3	Y3	Z3	X4	Y4	Z4	X5	Y5	Z5	X6	Y6	Z6	X7	Y7	Z7	X8	Y8	Z8	X9	Y9	Z9	X10	Y10	Z10	X11	Y11	Z11	X12	Y12	Z12	X13	Y13	Z13	X14	Y14	Z14	X15	Y15	Z15	X16	Y16	Z16	X17	Y17	Z17	X18	Y18	Z18	X19	Y19	Z19	X20	Y20	Z20	X21	Y21	Z21	X22	Y22	Z22	X23	Y23	Z23	X24	Y24	Z24	X25	Y25	Z25	X26	Y26	Z26	X27	Y27	Z27	X28	Y28	Z28	X29	Y29	Z29	X30	Y30	Z30	X31	Y31	Z31	X32	Y32	Z32	X33	Y33	Z33	X34	Y34	Z34	X35	Y35	Z35	X36	Y36	Z36	X37	Y37	Z37	X38	Y38	Z38	X39	Y39	Z39	

79	0.39	-1093.690673828125	1547.3291015625	-532.2984619140625	-1015.206420898438	1546.072509765625	-220.6003570556641	-1063.298217773438	1075.748168945312	-497.7350463867188	-1046.011352539062	1093.615356445312	-204.69970703125	-1018.110778808594	1036.279296875	-471.4873657226562	-891.35107421875	106.9517517089844	-394.4797973632812	-1012.935546875	1041.453369140625	-210.6785736083984	-1113.2685546875	951.5294189453124	-516.4325561523438	-1140.144897460938	973.31201171875	-177.4881439208984	-1173.125610351562	1104.927978515625	-343.2914123535156	-953.305908203125	828.0863647460938	-487.1447143554688	-937.3483276367188	270.6856994628906	-431.94677734375	-1027.960083007812	798.5143432617188	-519.2839965820312	-924.4545288085938	729.3587646484375	-470.5305786132812	-1536.013549804688	136.4846649169922	-211.8202514648438	-956.7150268554688	365.2944641113281	-470.9819030761719	-1002.716735839844	703.2835693359375	-494.8424987792969	-1058.51806640625	813.5645751953125	-203.5378723144531	-654.2548828125	195.0345001220703	-414.9113159179688	-1129.138916015625	836.5347290039062	-175.3072204589844	-1094.064208984375	719.273681640625	-214.8527069091797	-1166.834106445312	745.3256225585938	-192.4353942871094	-922.3189086914062	578.17578125	-457.7761535644531	-1210.252685546875	576.2131958007812	-229.73828125	-873.88525390625	377.5352172851562	-470.5155639648438	-862.9441528320312	277.0644836425781	-464.7280883789062	-1347.954223632812	440.6864624023438	-208.3724365234375	-702.0264892578125	131.2616882324219	-473.9219970703125	-1405.183959960938	497.1018371582031	-221.113525390625	-871.1749267578125	84.55748748779297	-371.3853454589844	-1415.386352539062	367.3011779785156	-216.1657409667969	-1471.35498046875	422.2322692871094	-242.3938446044922	-857.130615234375	147.9795837402344	-452.7654418945312	-1537.96484375	290.226318359375	-220.3876190185547	-1485.045288085938	95.77434539794922	-283.7852783203125	-1589.478271484375	326.3979187011719	-263.3931884765625	-1608.555786132812	302.9830932617188	-297.5597229003906	-1615.207885742188	307.9039306640625	-241.5397644042969	-874.7490844726562	74.34114074707031	-423.5079650878906
80	0.395	-1076.279174804688	1545.917846679688	-533.2835693359375	-998.2273559570312	1545.225952148438	-221.6834106445312	-1046.812744140625	1073.698852539062	-497.7492980957031	-1029.911010742188	1092.713745117188	-204.4247283935547	-1001.7060546875	1034.799194335938	-471.5462036132812	-873.4345092773438	104.9561767578125	-393.6351623535156	-996.890625	1040.355590820312	-210.6121368408203	-1097.001831054688	949.2628173828124	-516.16552734375	-1123.120971679688	971.2324829101562	-177.2880096435547	-1156.860961914062	1103.41015625	-343.3437805175781	-938.70654296875	823.8338012695312	-487.5114440917969	-920.2749633789062	269.3294982910156	-431.8486022949219	-1013.258422851562	795.4172973632812	-520.3956298828125	-909.3944091796876	725.2568969726562	-470.4994506835938	-1524.1181640625	142.7387542724609	-210.9800872802734	-939.9570922851562	363.7638549804688	-470.5155334472656	-989.0809936523438	699.7342529296875	-496.8944396972656	-1040.316772460938	812.2246704101562	-205.1687164306641	-637.3809814453125	196.0910186767578	-414.5364074707031	-1110.295288085938	833.7807006835938	-176.16796875	-1074.6416015625	717.858642578125	-216.5340728759766	-1147.208984375	742.8768310546875	-192.56103515625	-907.512939453125	576.4635009765625	-457.0646667480469	-1189.4658203125	572.9335327148438	-230.1546936035156	-857.2235717773438	376.2395935058594	-469.6322937011719	-845.4747314453125	275.6633911132812	-463.7666625976562	-1330.664672851562	441.4097595214844	-207.9344177246094	-684.7068481445312	131.6786346435547	-473.7421875	-1386.968627929688	499.4432067871094	-221.6380920410156	-853.1011352539062	82.6773452758789	-370.8794860839844	-1400.668579101562	371.087158203125	-214.9767456054688	-1455.230346679688	426.1062927246094	-242.0848999023438	-839.8394165039062	147.1548919677734	-452.2427673339844	-1520.096069335938	297.2922668457031	-219.7872924804688	-1473.595336914062	101.5742874145508	-282.7425231933594	-1576.245483398438	332.6856384277344	-262.4318542480469	-1595.767578125	309.8003234863281	-296.7460021972656	-1602.588256835938	314.4284057617188	-241.2549591064453	-856.5072631835938	73.02713775634766	-423.1370544433594
81	0.4	-1059.18212890625	1543.767944335938	-534.392578125	-981.3170166015624	1544.13720703125	-222.6880798339844	-1030.80322265625	1071.940551757812	-498.0840759277344	-1014.013916015625	1090.96435546875	-204.2470245361328	-985.2081298828124	1032.9365234375	-471.5155944824219	-856.8748168945312	103.1444778442383	-392.9071960449219	-980.3624877929688	1039.260864257812	-210.6877288818359	-1081.454711914062	946.9222412109376	-516.0767822265625	-1105.676513671875	968.8335571289062	-176.7528076171875	-1140.87646484375	1101.122192382812	-343.30859375	-923.9481201171876	819.9263305664062	-487.4828491210938	-903.6778564453124	267.4746704101562	-431.3807983398438	-998.368408203125	792.5181274414062	-521.8783569335938	-897.7652587890625	720.4691772460938	-470.6027221679688	-1512.35498046875	148.9191589355469	-210.1477661132812	-923.6983642578124	361.6935729980469	-469.7946472167969	-975.8455200195312	696.2275390625	-499.2071838378906	-1021.883422851562	810.2197875976562	-206.5476989746094	-621.4044189453125	195.4796752929688	-414.4284057617188	-1091.732666015625	830.6817626953125	-176.6288909912109	-1054.682861328125	715.7333374023438	-218.6252136230469	-1127.16796875	739.1066284179688	-193.0235748291016	-892.1111450195312	574.4976196289062	-456.1122436523438	-1168.992431640625	569.397216796875	-230.6508331298828	-840.7591552734375	374.300048828125	-468.7337036132812	-829.1224975585938	274.1294860839844	-462.39990234375	-1313.347900390625	441.8218078613281	-208.1436309814453	-668.9223022460938	131.5211486816406	-473.7252807617188	-1367.793334960938	501.3193359375	-221.7881469726562	-836.0208740234375	80.52117919921875	-370.2677307128906	-1385.261596679688	371.7734069824219	-215.7653045654297	-1438.20947265625	430.1518859863281	-241.7468719482422	-823.2088623046875	145.5023040771484	-451.1957702636719	-1506.89208984375	302.4217224121094	-219.5824890136719	-1462.57763671875	107.0615539550781	-282.3816833496094	-1563.15771484375	339.378662109375	-261.2227783203125	-1582.443481445312	316.0656433105469	-295.7318725585938	-1588.63720703125	321.4372253417969	-239.9900207519531	-839.944091796875	71.2328872680664	-422.58984375
82	0.405	-1042.14111328125	1541.863525390625	-535.720703125	-964.2175903320312	1542.645385742188	-223.7364654541016	-1014.999938964844	1069.781982421875	-497.6682434082031	-998.327880859375	1089.375122070312	-204.1544952392578	-969.2819213867188	1031.269653320312	-472.0622253417969	-841.3519897460938	101.2534713745117	-391.2173461914062	-964.3460083007812	1037.77783203125	-210.5238494873047	-1065.769165039062	944.5237426757812	-515.728515625	-1088.61328125	966.2293090820312	-176.0311126708984	-1125.148803710938	1098.83544921875	-343.4937438964844	-909.2318725585938	816.4494018554688	-487.9374084472656	-888.027587890625	265.0930480957031	-430.7015075683594	-983.4749145507812	790.156494140625	-523.1621704101562	-883.7576904296875	716.6083984375	-471.5936279296875	-1500.1728515625	154.6706695556641	-209.4307708740234	-907.643798828125	359.4994201660156	-469.162353515625	-961.717529296875	693.5130615234375	-501.0824584960938	-1002.8505859375	808.1455688476562	-207.9384155273438	-606.3881225585938	193.7086486816406	-414.1064758300781	-1072.6474609375	827.3265380859375	-177.1124877929688	-1035.048706054688	713.0908203125	-220.2975006103516	-1107.43505859375	735.4117431640625	-193.4884338378906	-876.9243774414062	572.9967651367188	-455.6915893554688	-1147.790161132812	565.9527587890625	-230.93994140625	-824.7822875976562	372.3248901367188	-467.5668334960938	-812.7363891601562	272.0603942871094	-461.3197937011719	-1295.68505859375	441.5877685546875	-207.9295654296875	-653.8484497070312	130.08056640625	-473.3700561523438	-1348.341064453125	502.7389831542969	-222.1188507080078	-820.6736450195312	78.42642211914062	-369.1442260742188	-1369.197265625	373.7157287597656	-216.1061706542969	-1420.859008789062	433.8375549316406	-241.6366882324219	-808.0686645507812	143.5742340087891	-450.1468200683594	-1491.884765625	307.9590759277344	-219.0524139404297	-1451.151977539062	112.4556732177734	-281.4034729003906	-1547.2890625	346.0094604492188	-260.7691040039062	-1567.98193359375	322.2857360839844	-294.4462890625	-1574.232543945312	328.5838928222656	-239.0715484619141	-824.5923461914062	69.74919891357422	-421.604248046875
